<?xml version="1.0" encoding="UTF-8"?>
<svg xmlns="http://www.w3.org/2000/svg" viewBox="0 0 475 138">
  <g transform="translate(5, 103) scale(0.1, -0.1)">
    <path d="M46 0V116H138V584H46V700H334Q475 700 548.5 628.5Q622 557 622 416V284Q622 143 548.5 71.5Q475 0 334 0ZM270 120H336Q416 120 453.0 162.0Q490 204 490 280V420Q490 497 453.0 538.5Q416 580 336 580H270Z" transform="translate(0, 0)" fill="#1D6F6F"/>
    <path d="M66 0V700H198V0Z" transform="translate(686, 0)" fill="#1D6F6F"/>
    <path d="M308 -14Q236 -14 177.5 18.5Q119 51 84.5 113.5Q50 176 50 266V434Q50 569 126.0 641.5Q202 714 332 714Q461 714 531.5 645.5Q602 577 602 460V456H472V464Q472 501 456.5 531.0Q441 561 410.0 578.5Q379 596 332 596Q262 596 222.0 553.0Q182 510 182 436V264Q182 191 222.0 146.5Q262 102 334 102Q406 102 439.0 140.0Q472 178 472 236V246H306V358H602V0H480V67H462Q455 50 439.5 31.0Q424 12 393.0 -1.0Q362 -14 308 -14Z" transform="translate(970, 0)" fill="#1D6F6F"/>
    <path d="M66 0V700H198V0Z" transform="translate(1652, 0)" fill="#1D6F6F"/>
    <path d="M228 0V580H24V700H564V580H360V0Z" transform="translate(1936, 0)" fill="#1D6F6F"/>
    <path d="M18 0 202 700H432L616 0H480L442 154H192L154 0ZM223 276H411L326 617H308Z" transform="translate(2544, 0)" fill="#1D6F6F"/>
    <path d="M66 0V700H198V120H518V0Z" transform="translate(3198, 0)" fill="#1D6F6F"/>
    <path d="M66 0V700H198V0Z" transform="translate(3760, 0)" fill="#1D6F6F"/>
    <path d="M309 -14Q228 -14 166.0 15.0Q104 44 69.0 98.0Q34 152 34 228V256H164V228Q164 165 203.0 133.5Q242 102 309 102Q377 102 410.5 129.0Q444 156 444 198Q444 227 427.5 245.0Q411 263 379.5 274.5Q348 286 303 296L280 301Q208 317 156.5 341.5Q105 366 77.5 406.0Q50 446 50 510Q50 574 80.5 619.5Q111 665 166.5 689.5Q222 714 297 714Q372 714 430.5 688.5Q489 663 522.5 612.5Q556 562 556 486V456H426V486Q426 526 410.5 550.5Q395 575 366.0 586.5Q337 598 297 598Q237 598 208.5 575.5Q180 553 180 514Q180 488 193.5 470.0Q207 452 234.0 440.0Q261 428 303 419L326 414Q401 398 456.5 373.0Q512 348 543.0 307.0Q574 266 574 202Q574 138 541.5 89.5Q509 41 449.5 13.5Q390 -14 309 -14Z" transform="translate(4044, 0)" fill="#1D6F6F"/>
  </g>
  <circle cx="42.5" cy="68.4" r="8.5" fill="#99C33B"/>
</svg>